<svg viewBox="0 0 32 32" xmlns="http://www.w3.org/2000/svg" width="300" height="300" version="1.1" xmlns:xlink="http://www.w3.org/1999/xlink" xmlns:svgjs="http://svgjs.dev/svgjs"><g width="100%" height="100%" transform="matrix(1,0,0,1,0,0)"><g id="Layer_51" data-name="Layer 51"><path d="m13.221 15.792a5 5 0 1 0 -6.442 0 7 7 0 0 0 -3.779 6.208v3h14v-3a7 7 0 0 0 -3.779-6.208zm-3.221-6.792a3 3 0 1 1 -3 3 3 3 0 0 1 3-3zm5 14h-10v-1a5 5 0 0 1 10 0z" fill="#572251" fill-opacity="1" data-original-color="#000000ff" stroke="none" stroke-opacity="1"/><path d="m18 7h11v2h-11z" fill="#572251" fill-opacity="1" data-original-color="#000000ff" stroke="none" stroke-opacity="1"/><path d="m18 15h11v2h-11z" fill="#572251" fill-opacity="1" data-original-color="#000000ff" stroke="none" stroke-opacity="1"/><path d="m18 23h11v2h-11z" fill="#572251" fill-opacity="1" data-original-color="#000000ff" stroke="none" stroke-opacity="1"/></g></g></svg>